<?xml version="1.0" encoding="utf-8"?>
<!-- Generator: Adobe Illustrator 23.1.0, SVG Export Plug-In . SVG Version: 6.00 Build 0)  -->
<svg version="1.1" id="Layer_1" opacity="0.5" xmlns="http://www.w3.org/2000/svg" xmlns:xlink="http://www.w3.org/1999/xlink"
	 x="0px" y="0px" viewBox="0 0 1788 2500" style="enable-background:new 0 0 1788 2500;" xml:space="preserve">
<style type="text/css">
	.st0{opacity:0.75;}
	.st1{fill:#2D3E63;}
	.st2{fill-rule:evenodd;clip-rule:evenodd;fill:#1B1E2B;}
	.st3{fill-rule:evenodd;clip-rule:evenodd;fill:#2D3E63;}
</style>
<g class="st0">
	<path class="st1" d="M596.5,549.6h-38.1v197.5h38.1V549.6z M760.5,549.6h-38.1v197.5h38.1V549.6z M984.5,172.7L945.5,105
		L293.4,481.9l39.1,67.7L984.5,172.7z"/>
	<path class="st1" d="M980.7,172.7l39.1-67.8l652.1,376.9l-39.1,67.8L980.7,172.7z"/>
	<path class="st1" d="M1787.3,550.6v-78.2H0.7v78.2H1787.3z"/>
	<path class="st2" d="M1079.9,1655.5V496.2h78.2v1215.7C1137.1,1688,1110.4,1670.8,1079.9,1655.5z M946.4,1635.5V0h78.2v1645
		C1002.7,1634.5,949.3,1635.5,946.4,1635.5z M205.7,1798.7c-178-131.4-194.7-364.9-105-503.8c17.7,0,165.1,0,316.9,0
		c170.1,0,345.1,0,348.6,0c59.7,96.6,69.9,249.5,20.1,356.9c-144.4-128.2-402.9-74.5-468,105.8c-5.4,7-5.2,31.8-12.7,31.3
		C272.1,1784.6,238.5,1790.3,205.7,1798.7z"/>
	<path class="st1" d="M533.6,834.9H331.5v203.2h202.1V834.9z M305.8,834.9H103.7v203.2h202.1V834.9z M305.8,1061.1H103.7v203.3
		h202.1V1061.1z M533.6,1061.1H331.5v203.3h202.1V1061.1z M760.5,1061.1H558.4v203.3h202.1V1061.1z M760.5,726.2H558.4v203.2h202.1
		V726.2z"/>
	<path class="st3" d="M342,1829.2c37.2-157,205.2-246.1,357-186.6c150.6,70.5,61.9,94.8,151.9,49.4
		c168.1-70.2,347.9,41.6,368.3,214.1c9.4,104.1-25.4,109-3.1,131.4c161.3,265-157.6,536.6-392.6,350.1
		c-87.2,121.4-252.5,148.3-372.1,62.8c-112.3-88.9-48.6-101.8-119.2-90.1c-142.6,10.4-266.5-94.8-283.6-232.2
		C27.4,1953.3,173,1812.8,342,1829.2L342,1829.2z"/>
</g>
</svg>
